<svg width="130" height="56" xmlns="http://www.w3.org/2000/svg">

 <linearGradient y2="1.000009" x2="0.500004" y1="0" x1="0.500004" id="SVGID_1_">
  <stop stop-color="#000000" offset="0.0056"/>
  <stop stop-color="#EAECEF" offset="1"/>
 </linearGradient>
 <linearGradient y2="-0.233398" x2="0.246038" y1="1.233381" x1="0.753976" id="SVGID_2_">
  <stop stop-color="#000000" offset="0.0056"/>
  <stop stop-color="#828385" offset="1"/>
 </linearGradient>
 <g>
  <title>Layer 1</title>
  <path id="svg_1" d="m101.998001,55.998001l-73.998001,0c-15.439,0 -28,-12.562 -28,-28.000002c0,-15.437999 12.561,-27.997999 28,-27.997999l73.998001,0c15.438995,0 28,12.559 28,27.997999c0,15.440001 -12.559998,28.000002 -28,28.000002l0,0z" fill="url(#SVGID_1_)"/>
  <path id="svg_2" d="m127.999001,27.997999c0,14.358999 -11.641998,26.000002 -26,26.000002l-74,0c-14.359,0 -26,-11.641003 -26,-26.000002l0,0c0,-14.358999 11.641,-25.999999 26,-25.999999l74,0c14.358002,0 26,11.641 26,25.999999l0,0z" fill="#ff0000"/>
 </g>
</svg>
